<?xml version="1.0" encoding="utf-8"?>
<!-- Generator: Adobe Illustrator 25.4.1, SVG Export Plug-In . SVG Version: 6.00 Build 0)  -->
<svg version="1.1" id="g_x24_-0" xmlns:svgjs="http://svgjs.dev/svgjs"
	 xmlns="http://www.w3.org/2000/svg" xmlns:xlink="http://www.w3.org/1999/xlink" x="0px" y="0px" viewBox="0 0 1000 226"
	 style="enable-background:new 0 0 1000 226;" xml:space="preserve">
<style type="text/css">
	.st0{fill:#EE3E38;}
	.st1{display:none;fill:none;}
</style>
<g transform="matrix(1,0,0,1,0.7761338289962509,0.5219303278688301)">
	<g id="tight-bounds" transform="matrix(1,0,0,1,-0.2087799999999902,-0.1408749999999941)">
		<g>
			<g>
				<g id="textblocktransform">
					<g>
						<g id="text-0">
							<g transform="matrix(1,0,0,1,0,3.3908749999999905)">
								<path class="st0" d="M29.7,27.7c10.7,0,20,1.6,27.9,4.9c7.8,3.3,14.2,9.6,19.1,18.9c4.9,9.3,7.3,22.5,7.3,39.6l0,0
									c0,24.1-4.8,40.9-14.3,50.4c-9.6,9.5-22.1,14.3-37.5,14.3l0,0H1.1v-128H29.7z M33.2,45.3h-8.5v92.8h8.7
									c5.6,0,10.2-1.3,14-3.9c3.8-2.6,6.7-7.3,8.9-14.3c2.1-6.9,3.2-16.5,3.2-28.9l0,0c0-12.6-1.1-22.2-3.4-28.9
									c-2.3-6.7-5.3-11.2-9-13.4C43.2,46.4,38.6,45.3,33.2,45.3L33.2,45.3z M101,57.7h22.8v98H101V57.7z M112.3,8.8
									c4.1,0,7.4,1.3,9.9,3.9c2.5,2.6,3.8,5.9,3.8,10l0,0c0,4-1.3,7.2-3.8,9.8c-2.5,2.6-5.8,3.9-9.9,3.9l0,0
									c-4.1,0-7.4-1.3-9.9-3.9c-2.5-2.6-3.8-5.9-3.8-9.8l0,0c0-4.1,1.3-7.4,3.8-10C104.9,10.1,108.2,8.8,112.3,8.8L112.3,8.8z
									 M211.4,45.1l5.7,17.6c-2.6,1.2-5.7,2.1-9.4,2.6c-3.6,0.5-8.2,0.7-13.6,0.7l0,0c5.2,2.5,9,5.8,11.6,9.9
									c2.5,4.1,3.8,9.2,3.8,15.3l0,0c0,9.9-3,17.8-9.1,23.9c-6.1,6.1-14.3,9.1-24.6,9.1l0,0c-3.1,0-6.2-0.5-9.4-1.5l0,0
									c-2.2,1.9-3.3,4.4-3.3,7.6l0,0c0,2.5,0.7,4.3,2,5.6c1.4,1.2,3.9,1.9,7.6,1.9l0,0h10.4c9.9,0,17.7,2.6,23.5,7.7
									c5.8,5.1,8.7,11.7,8.7,19.6l0,0c0,9.4-3.6,16.9-10.9,22.5c-7.2,5.6-17.5,8.4-30.8,8.4l0,0c-14.1,0-23.9-2.6-29.6-7.8
									c-5.6-5.2-8.4-12.8-8.4-22.8l0,0h20.2c0,5.3,1.2,9.1,3.7,11.3c2.5,2.2,7.2,3.3,14.3,3.3l0,0c6.8,0,11.6-1.2,14.4-3.5
									c2.8-2.3,4.3-5.7,4.3-10l0,0c0-4.2-1.2-7.3-3.5-9.3c-2.3-2-6-3-10.9-3l0,0h-7c-9.4,0-16.2-1.7-20.6-5s-6.5-7.9-6.5-13.7l0,0
									c0-3.3,0.9-6.5,2.7-9.6c1.8-3,4.2-5.7,7.3-8l0,0c-5.1-3.2-8.8-7-11.1-11.5c-2.3-4.4-3.5-9.9-3.5-16.3l0,0
									c0-10.7,3.2-19.2,9.6-25.5c6.4-6.2,15.1-9.3,25.9-9.3l0,0c8,0,14.7-0.9,19.9-2.6C200.1,51,205.6,48.4,211.4,45.1L211.4,45.1
									z M174.9,70.5c-4.3,0-7.6,1.5-9.8,4.6s-3.3,8-3.3,14.6l0,0c0,6.3,1.1,11.1,3.3,14.5c2.2,3.4,5.4,5.1,9.6,5.1l0,0
									c4.3,0,7.5-1.5,9.6-4.6c2.1-3,3.1-8.1,3.1-15.3l0,0c0-6.7-1-11.5-3.1-14.6C182.4,72,179.2,70.5,174.9,70.5L174.9,70.5z
									 M227.3,57.7h22.8v98h-22.8V57.7z M238.6,8.8c4.1,0,7.4,1.3,9.9,3.9c2.5,2.6,3.8,5.9,3.8,10l0,0c0,4-1.3,7.2-3.8,9.8
									c-2.5,2.6-5.9,3.9-9.9,3.9l0,0c-4.1,0-7.4-1.3-9.9-3.9c-2.5-2.6-3.8-5.9-3.8-9.8l0,0c0-4.1,1.3-7.4,3.8-10
									C231.2,10.1,234.5,8.8,238.6,8.8L238.6,8.8z"/>
							</g>
							<g>
								<path class="st0" d="M552,2.5c-0.7-1.7-2.4-2.9-4.2-2.9H357.1c-1.8,0-3.4,1.1-4.2,2.7L324.2,67c-0.3,0.6-0.4,1.2-0.4,1.8
									v3.3c0,16.1,11.8,30.1,27.2,34.1v78.1c0,22.6,19.8,42.4,42.4,42.4H407h84.8h19.7c21.7,0,39.4-19,39.4-42.4v-77.7
									c15.7-3.3,27.2-17.2,27.2-34.4v-3.3c0-0.6-0.1-1.1-0.3-1.7L552,2.5z M567.6,66.2h-49.2L504.8,8.7h40L567.6,66.2z M447.9,8.7
									v57.5h-52.1l13.7-57.5H447.9z M495.4,8.7l13.7,57.5H457V8.7H495.4z M447.8,72.3c-0.1,14.3-11.7,26-26.1,26
									c-14.3,0-26-11.6-26.1-26H447.8z M508.8,72.3c-0.1,14.3-11.7,26-25.9,26c-14.3,0-25.9-11.6-26-26H508.8z M360,8.7h40.1
									l-13.7,57.5h-52L360,8.7z M332.9,72.3h53.7c-0.1,14.1-12.3,26-26.8,26c-0.7,0-1.4-0.1-2.1-0.1c-0.2,0-0.4,0-0.6,0
									C343.7,96.8,332.9,85.5,332.9,72.3z M411.6,217.6v-57.5c0-10.4,11.1-18.2,21-18.2h36.8c10.2,0,17.9,7.8,17.9,18.2v57.5
									H411.6z M541.8,184.3c0,18.4-13.6,33.3-30.3,33.3h-15.1v-57.5c0-15.3-11.9-27.2-27-27.2h-36.8c-14.2,0-30,11.2-30,27.2v57.5
									h-9.1c-17.4,0-33.3-15.9-33.3-33.3v-76.9c0.1,0,0.2,0,0.3,0c1.5,0,3-0.1,4.4-0.4c0.1,0,0.2,0,0.3-0.1
									c1.5-0.2,2.9-0.5,4.3-0.9c0.1,0,0.2-0.1,0.3-0.1c1.4-0.4,2.8-0.9,4.2-1.5c0.1,0,0.1-0.1,0.2-0.1c1.4-0.6,2.7-1.3,3.9-2
									c0.1,0,0.1-0.1,0.2-0.1c1.3-0.8,2.5-1.6,3.7-2.5c0,0,0.1-0.1,0.1-0.1c1.2-0.9,2.3-1.9,3.4-3c0,0,0,0,0.1-0.1
									c1.1-1.1,2.1-2.2,3-3.4c0,0,0,0,0,0c0.9-1.2,1.8-2.5,2.5-3.8c6,10.8,17.5,18.1,30.8,18.1c13.1,0,24.6-7.2,30.6-17.9
									c6,10.7,17.5,17.9,30.6,17.9c13,0,24.4-7.2,30.5-17.8c0.7,1.3,1.5,2.5,2.4,3.7c0.3,0.4,0.6,0.8,0.9,1.1
									c0.6,0.8,1.2,1.5,1.9,2.2c0.4,0.4,0.9,0.8,1.3,1.2c0.6,0.6,1.3,1.2,2,1.8c0.5,0.4,1,0.7,1.5,1.1c0.7,0.5,1.4,1,2.1,1.5
									c0.6,0.3,1.1,0.6,1.7,1c0.7,0.4,1.5,0.8,2.2,1.1c0.6,0.3,1.3,0.5,1.9,0.8c0.8,0.3,1.5,0.6,2.3,0.8c0.7,0.2,1.3,0.4,2,0.5
									c0.8,0.2,1.6,0.4,2.4,0.5c0.7,0.1,1.4,0.2,2.1,0.3c0.5,0.1,1,0.2,1.5,0.2L541.8,184.3L541.8,184.3z M546.5,98.1
									c-0.1,0-0.2,0-0.3,0c-0.3,0-0.5,0.1-0.8,0.1c-0.6,0-1.2,0.1-1.8,0.1c-14.4,0-25.7-11.4-25.7-26H569
									C568.9,85.8,559.3,96.6,546.5,98.1z"/>
							</g>
							<g transform="matrix(1,0,0,1,175.01756,6.390875000000001)">
								<path class="st0" d="M516.8,25.8c7.4,0,14,1.3,19.6,3.9c5.7,2.6,10.9,6.5,15.7,11.7l0,0L541.2,54c-3.8-3.5-7.6-6.1-11.2-7.8
									c-3.7-1.7-7.5-2.6-11.6-2.6l0,0c-4.7,0-8.4,1.4-11.1,4.3c-2.7,2.9-4.1,6.7-4.1,11.4l0,0c0,4.7,1.4,8.5,4.3,11.5
									c2.8,3,8.4,6.1,16.7,9.3l0,0c10.6,4.3,18.4,9.4,23.5,15.2c5,5.8,7.5,14,7.5,24.6l0,0c0,7.3-1.7,13.9-5,19.9
									c-3.3,6-8.1,10.7-14.3,14.2c-6.2,3.5-13.5,5.2-21.8,5.2l0,0c-8.5,0-15.9-1.5-22.2-4.6c-6.3-3-12-7.3-17.2-12.9l0,0l11.9-13
									c4.4,4,8.7,7,12.8,9.1s8.5,3.1,13.3,3.1l0,0c5.7,0,10.1-1.8,13.3-5.3c3.1-3.5,4.7-8.3,4.7-14.3l0,0c0-5.3-1.4-9.7-4.1-13.1
									c-2.8-3.4-8-6.5-15.5-9.3l0,0c-11.4-4.6-19.5-9.8-24.5-15.7c-5-5.9-7.5-13.3-7.5-22.2l0,0c0-6.8,1.6-12.8,4.9-18.2
									c3.3-5.3,7.8-9.5,13.6-12.5C503.1,27.3,509.6,25.8,516.8,25.8L516.8,25.8z M615.7,55.8c7,0,12.6,2.5,16.7,7.6
									c4.1,5.1,6.1,11.9,6.1,20.4l0,0v72.6h-22.8v-70c0-4.7-0.7-8.1-2-10.1c-1.3-2-3.2-3-5.6-3l0,0c-5.2,0-10.3,4.9-15.4,14.6l0,0
									v68.5H570V19.3l22.8-2.4v53.2c3.1-4.8,6.4-8.4,10.1-10.7C606.5,57,610.8,55.8,615.7,55.8L615.7,55.8z M693.9,55.8
									c12.3,0,21.9,4.3,28.8,13c6.8,8.6,10.3,21.5,10.3,38.5l0,0c0,16.3-3.4,29-10.3,38.2c-6.9,9.1-16.5,13.7-28.7,13.7l0,0
									c-12.3,0-21.8-4.5-28.7-13.4c-6.9-8.9-10.4-21.7-10.4-38.4l0,0c0-16.5,3.5-29.3,10.4-38.2C672.1,60.3,681.6,55.8,693.9,55.8
									L693.9,55.8z M693.9,73c-5.3,0-9.2,2.6-11.7,7.9c-2.5,5.3-3.7,14.1-3.7,26.4l0,0c0,12.5,1.2,21.3,3.7,26.6
									c2.5,5.3,6.4,7.9,11.7,7.9l0,0c5.3,0,9.2-2.6,11.7-7.9c2.5-5.2,3.7-14.1,3.7-26.6l0,0c0-12.5-1.2-21.3-3.7-26.5
									C703.1,75.6,699.2,73,693.9,73L693.9,73z M795,55.8c9.6,0,16.9,4.4,21.9,13.2c4.9,8.8,7.4,21.5,7.4,38.1l0,0
									c0,16.1-2.8,28.7-8.4,38c-5.6,9.3-13.4,14-23.5,14l0,0c-7.9,0-14.5-3.5-19.8-10.6l0,0V194l-22.8,2.6V58.4H770l0.9,11.9
									c3.2-4.9,6.8-8.6,10.7-10.9C785.6,57,790,55.8,795,55.8L795,55.8z M786.3,141.8c4.7,0,8.3-2.7,10.7-8.1
									c2.5-5.4,3.7-14.2,3.7-26.4l0,0c0-12.8-1-21.8-3.1-26.9c-2.1-5.1-5.4-7.6-9.8-7.6l0,0c-5.7,0-10.7,4.1-15.2,12.2l0,0v47.4
									C776.5,138.7,781.1,141.8,786.3,141.8L786.3,141.8z"/>
							</g>
						</g>
					</g>
				</g>
			</g>
		</g>
		<rect x="1.1" y="-0.4" class="st1" width="998.2" height="227"/>
	</g>
</g>
</svg>
