<?xml version="1.0" standalone="no"?>
<!DOCTYPE svg PUBLIC "-//W3C//DTD SVG 20010904//EN"
 "http://www.w3.org/TR/2001/REC-SVG-20010904/DTD/svg10.dtd">
<svg version="1.0" xmlns="http://www.w3.org/2000/svg"
 width="100.000000pt" height="100.000000pt" viewBox="0 0 100.000000 100.000000"
 preserveAspectRatio="xMidYMid meet">

<g transform="translate(0.000000,100.000000) scale(0.100000,-0.100000)"
fill="#000000" stroke="none">
<path d="M516 969 c-35 -27 -36 -77 -1 -109 23 -21 25 -31 27 -134 2 -91 6
-111 18 -111 12 0 16 20 18 112 2 101 5 114 23 123 48 26 43 111 -8 131 -35
13 -47 11 -77 -12z m74 -40 c14 -26 -4 -51 -34 -47 -24 4 -33 33 -16 53 17 21
37 19 50 -6z"/>
<path d="M276 899 c-56 -44 -21 -134 49 -127 28 2 41 -4 70 -32 32 -31 35 -39
35 -92 0 -43 4 -58 14 -58 19 0 26 22 26 81 0 44 -5 54 -40 93 -31 34 -40 51
-40 79 0 27 -7 41 -26 56 -15 12 -34 21 -44 21 -10 0 -29 -9 -44 -21z m62 -28
c8 -4 12 -19 10 -32 -2 -18 -9 -24 -28 -24 -19 0 -26 6 -28 24 -3 20 11 41 28
41 3 0 11 -4 18 -9z"/>
<path d="M753 894 c-20 -20 -24 -32 -20 -59 5 -28 0 -38 -34 -71 l-39 -38 0
-188 c0 -181 1 -188 20 -188 19 0 20 7 20 183 l0 183 30 29 c23 22 38 29 65
27 26 -2 42 4 60 22 32 32 32 70 0 101 -31 32 -69 32 -102 -1z m81 -36 c8 -14
7 -21 -6 -34 -30 -30 -75 9 -48 42 16 18 39 15 54 -8z"/>
<path d="M157 692 c-23 -25 -21 -78 3 -102 26 -26 81 -26 104 -1 23 25 23 76
1 101 -24 26 -86 27 -108 2z m78 -52 c0 -18 -6 -26 -23 -28 -13 -2 -25 3 -28
12 -10 26 4 48 28 44 17 -2 23 -10 23 -28z"/>
<path d="M859 689 c-14 -14 -20 -31 -17 -54 2 -28 -4 -41 -35 -73 -20 -21 -37
-43 -37 -50 0 -23 36 -12 70 22 25 27 43 36 73 38 70 5 99 75 51 122 -22 23
-80 20 -105 -5z m86 -29 c13 -20 -6 -50 -31 -50 -26 0 -40 20 -30 45 6 17 51
20 61 5z"/>
<path d="M460 522 c-9 -4 -78 -43 -153 -86 -126 -73 -152 -96 -128 -110 4 -3
75 33 156 79 81 47 153 85 159 85 19 0 36 -22 36 -47 0 -17 -16 -32 -72 -64
-84 -49 -98 -63 -98 -99 0 -34 20 -52 93 -86 51 -23 68 -26 145 -22 102 4 166
30 249 103 53 47 86 57 97 29 10 -25 -18 -59 -87 -110 -202 -149 -384 -177
-644 -98 l-82 24 -3 133 -3 132 -55 0 c-42 0 -55 -3 -55 -15 0 -10 12 -16 38
-18 l38 -3 -3 -137 -3 -137 -37 -3 c-25 -2 -38 -8 -38 -18 0 -11 14 -14 60
-14 52 0 60 2 60 19 0 19 1 19 62 0 219 -69 401 -58 579 32 69 34 178 119 201
157 23 35 23 54 -3 86 -34 43 -76 36 -145 -24 -85 -74 -147 -102 -233 -102
-54 0 -83 6 -130 27 -79 36 -79 53 -3 96 79 44 112 77 112 110 0 41 -9 58 -41
74 -30 16 -45 17 -69 7z"/>
</g>
</svg>
